<svg width="681" height="428" viewBox="0 0 681 428" fill="none" xmlns="http://www.w3.org/2000/svg">
<path d="M562.996 59.4317C622.798 54.4381 675.324 98.8777 680.319 158.692C685.314 218.507 640.888 271.049 581.09 276.05C521.285 281.051 468.748 236.61 463.753 176.79C458.758 116.969 503.191 64.4252 562.996 59.4317ZM573.208 237.585C611.769 236.924 642.496 205.123 641.844 166.551C641.188 127.979 609.399 97.2386 570.838 97.8871C532.265 98.5353 501.523 130.341 502.179 168.922C502.835 207.503 534.635 238.247 573.208 237.585Z" fill="white"/>
<path d="M0 0C6.04163 0.397972 14.1307 0.180045 20.3726 0.18042C31.1861 0.234808 42.0004 0.182294 52.8131 0.0221297C53.0572 11.4114 52.6733 24.4297 52.6703 36.0335L52.665 119.618L52.6676 240.145C52.6687 255.176 52.9961 270.813 52.8495 285.723C36.7343 286.314 15.9502 284.504 0.110247 285.841L0.120375 100.661C0.12075 67.2651 0.44475 33.3253 0 0Z" fill="white"/>
<path d="M628.089 315.109C633.977 315.39 678.718 314.79 680.458 315.606C681.564 318.766 680.117 327.003 680.03 330.691C678.527 394.79 623.03 431.35 562.644 426.921C534.455 424.854 515.63 419.978 493.295 402.562C490.509 400.604 486.478 396.452 484.119 393.909C469.652 378.335 463.1 359.802 460.434 338.981C476.889 340.031 497.098 338.219 513.407 339.093C515.563 348.452 517.483 355.912 523.7 363.594C532.944 375.016 547.993 381.343 562.415 382.559C578.968 383.916 595.487 381.861 608.559 370.927C621.654 359.974 625.948 345.023 627.455 328.567C627.864 324.121 627.635 319.6 628.089 315.109Z" fill="white"/>
<path d="M325.136 87.2523C336.504 85.8138 348.313 89.9878 355.333 99.2375C359.686 105.081 361.539 112.418 360.478 119.63C358.79 131.909 347.81 140.802 338.45 147.87C345.688 157.027 354.5 167.671 362.124 176.501C366.343 170.998 372.016 164.436 376.603 159.281C380.975 163.73 385.321 168.204 389.645 172.704C387.703 176.766 377.885 187.318 374.416 191.3C380.094 198.916 386.653 206.185 392.45 213.747C394.46 216.372 396.778 219.203 399.009 221.615C391.936 221.869 383.735 221.686 376.576 221.703C371.653 221.465 363.515 209.693 360.691 205.52C350.686 215.517 340.284 222.818 325.747 223.985C298.623 226.163 275.701 204.03 281.882 176.361C285.556 159.918 297.176 153.291 310.186 144.938C298.811 131.91 291.412 115.397 302.888 98.5507C307.787 91.3587 316.705 88.3899 325.136 87.2523ZM326.274 205.391C335.199 202.612 341.353 197.289 348.144 190.999C345.969 188.089 322.715 159.729 322.21 159.534C315.29 164.239 302.166 172.809 300.783 181.677C298.58 195.798 312.107 208.179 326.274 205.391ZM328.164 132.581C333.215 128.425 340.985 123.238 341.589 116.495C341.848 113.435 340.873 110.399 338.878 108.063C336.523 105.289 333.395 104.029 329.825 103.786C329.548 103.766 329.266 103.75 328.989 103.739C325.041 104.185 320.893 105.141 318.427 108.529C312.221 117.06 320.507 127.093 326.365 133.162C326.516 133.32 326.829 133.369 327.031 133.415L328.164 132.581Z" fill="white"/>
<path d="M94.1802 167.574C98.6708 167.947 106.025 167.707 110.753 167.706L142.251 167.659C145.815 167.651 155.617 167.399 158.579 168.083C161.937 171.286 170.562 183.237 173.67 187.356L202.545 225.607L232.234 264.95C235.414 269.169 244.464 280.666 246.547 284.453C244.865 284.87 228.457 284.665 225.534 284.666L197.858 284.675C192.603 284.673 186.025 284.857 180.882 284.405C162.237 260.074 143.981 234.996 125.594 210.429L105.722 183.769C102.311 179.179 96.9597 172.33 94.1802 167.574Z" fill="white"/>
<path d="M158.998 32.866C182.473 32.3495 201.938 50.9334 202.514 74.4126C203.091 97.8918 184.561 117.409 161.089 118.046C137.532 118.685 117.934 100.069 117.355 76.5044C116.776 52.9401 135.438 33.3844 158.998 32.866Z" fill="white"/>
</svg>
